<?xml version="1.0" encoding="utf-8"?>
<!-- Generator: Adobe Illustrator 27.7.0, SVG Export Plug-In . SVG Version: 6.00 Build 0)  -->
<svg version="1.1" id="レイヤー_1" xmlns="http://www.w3.org/2000/svg" xmlns:xlink="http://www.w3.org/1999/xlink" x="0px"
	 y="0px" width="1400px" height="460px" viewBox="0 0 1400 460" style="enable-background:new 0 0 1400 460;" xml:space="preserve">
<style type="text/css">
	.st0{clip-path:url(#SVGID_00000181808603866039745370000000177908506470400700_);}
	.st1{fill:#EE8AAA;}
	.st2{clip-path:url(#SVGID_00000008870725703404798650000004426755926466839183_);}
	.st3{fill:#FFFFFF;}
</style>
<g id="グループ_4033" transform="translate(0 -126)">
	<g>
		<defs>
			<path id="SVGID_1_" d="M0-34.2h1400v592.3c0,0-308.8,43.2-700,0s-700,0-700,0V-34.2z"/>
		</defs>
		<clipPath id="SVGID_00000147192918252182674960000005834520507188403349_">
			<use xlink:href="#SVGID_1_"  style="overflow:visible;"/>
		</clipPath>
		<g id="pink" style="clip-path:url(#SVGID_00000147192918252182674960000005834520507188403349_);">
			<path id="パス_677" class="st1" d="M-25,338.7c0,0,455.1-145.2,786.6,68.6c331.1,213.6,710.5,31.2,710.5,31.2v666.6H-25V338.7z
				"/>
		</g>
	</g>
	<g>
		<defs>
			<path id="SVGID_00000051377145560758762120000016823817417575645063_" d="M0-34.2h1400v1063.6c0,0-84.3-99.1-475.5-176.6
				S0,1029.4,0,1029.4V-34.2z"/>
		</defs>
		<clipPath id="SVGID_00000141449370504821732550000003303531684150985861_">
			<use xlink:href="#SVGID_00000051377145560758762120000016823817417575645063_"  style="overflow:visible;"/>
		</clipPath>
		<g id="white" style="clip-path:url(#SVGID_00000141449370504821732550000003303531684150985861_);">
			<path id="パス_682" class="st3" d="M1600.8,570.4L565,171c-112.1-43.4-233.6-56.3-352.3-37.5
				c-370.8,58.7-624.6,408.1-565.9,778.9s408.1,624.6,778.9,565.9c239.5-37.9,442.4-202.3,529.4-428.9c25.7-66.9-7.7-142-74.7-167.7
				s-142,7.7-167.7,74.7c-53.8,140.3-179.4,242-327.6,265.5c-229.4,36.3-445.6-120.7-481.9-350.1S23.9,426.3,253.3,390
				c73.4-11.7,148.6-3.7,218,23.1l1036.1,399.5c66.9,25.8,142-7.5,167.8-74.4C1701,671.3,1667.7,596.1,1600.8,570.4L1600.8,570.4"/>
		</g>
	</g>
	<g id="text" transform="translate(130 366.58)">
		<g id="グループ_1714" transform="translate(0 78.06)">
			<path id="パス_4049" d="M53.5-108.8c-1.1-0.5-3-1.7-3-7.5v-29.4c0-0.2-0.2-0.5-0.4-0.5c-0.1,0-0.2,0-0.3,0.1
				c-0.1,0.1-0.2,0.2-0.4,0.3c-3,2.6-6.6,4.5-10.6,5.4c-0.2,0.1-0.4,0.1-0.6,0.1c-0.4,0.1-0.6,0.5-0.4,0.8c0.1,0.1,0.2,0.2,0.4,0.3
				c0.6,0.3,1.2,0.6,1.8,1c1.1,0.5,1.8,1.5,2,2.7v19.3c0,5.8-1.9,7-3,7.5c-0.1,0-0.1,0.1-0.2,0.1c-0.1,0.1-0.2,0.3-0.2,0.5
				c0.1,0.2,0.3,0.3,0.5,0.3h14.1c0.2,0,0.4-0.1,0.5-0.3c0.1-0.2,0-0.4-0.2-0.5C53.6-108.7,53.5-108.7,53.5-108.8"/>
			<path id="パス_4050" d="M45.8-148.7c2.6,0,4.8-2.1,4.8-4.8c0-2.6-2.1-4.8-4.8-4.8c-2.6,0-4.8,2.1-4.8,4.8c0,0,0,0,0,0
				C41-150.9,43.2-148.7,45.8-148.7"/>
			<path id="パス_4051" d="M111.9-127.7c-1.8-1.8-5.3-3.5-10.4-5.3c-2.1-0.7-4.1-1.7-5.9-2.9c-1-0.7-1.6-1.9-1.5-3.1
				c0-1.4,0.6-2.8,1.8-3.6c1.3-0.9,3-1.4,4.6-1.2c2.3,0.1,4.4,1.1,6,2.7c1.5,1.5,2.6,3.4,2.9,5.6c0,0.3,0.3,0.4,0.5,0.4
				c0.2,0,0.3-0.1,0.4-0.3l3-6.9c0.2-0.4,0-0.9-0.4-1.1c-3.6-1.8-7.5-2.7-11.5-2.8c-4.3,0-7.3,1.2-9.6,3.5c-2.2,2.1-3.5,5-3.4,8
				c-0.1,2.8,1,5.5,3,7.5c1.9,2,4.9,3.6,9.2,5c3.4,1.1,5.5,1.9,6.3,2.6c1,0.8,1.6,2.1,1.6,3.4c0.1,1.6-0.6,3.2-1.7,4.4
				c-1.3,1-3,1.6-4.6,1.5c0,0-4.8,0.2-7.6-2.9c-1.5-1.5-2.5-3.5-2.9-5.6c-0.1-0.3-0.3-0.4-0.6-0.4c-0.2,0-0.3,0.1-0.3,0.3l-3,6.9
				c-0.2,0.4,0,0.9,0.4,1.1c4.2,2,8.7,3,13.3,3.1c4.8,0,7.4-1.3,9.7-3.6c2.3-2.3,3.6-5.5,3.5-8.8
				C114.8-123.1,113.8-125.7,111.9-127.7"/>
			<path id="パス_4052" d="M85.5-144.5c-0.1,0-0.5-0.3-0.5-0.3c-0.2-0.1-0.3-0.2-0.5-0.2l0,0l0,0c-3-1.4-6.5-1.3-9.5,0.1
				c-2.7,1.4-4.9,3.6-6.1,6.3c-0.2,0.4-0.7,0.3-0.7,0v-7.4c0-0.2-0.2-0.5-0.4-0.5c-0.1,0-0.2,0-0.3,0.1c-0.1,0.1-0.2,0.2-0.4,0.3
				c-3,2.6-6.6,4.5-10.5,5.4c-0.2,0.1-0.4,0.1-0.6,0.1c-0.4,0.1-0.6,0.5-0.4,0.8c0.1,0.1,0.2,0.2,0.4,0.3c0.6,0.3,1.2,0.6,1.8,1
				c1.1,0.5,1.8,1.5,2,2.7v19.3c0,5.8-1.9,7-3,7.5c-0.1,0-0.1,0.1-0.2,0.1c-0.1,0.1-0.2,0.3-0.2,0.5c0.1,0.2,0.3,0.3,0.5,0.3H71
				c0.2,0,0.4-0.1,0.5-0.3c0.1-0.2,0-0.4-0.2-0.5c0,0-0.1-0.1-0.2-0.1c-1.1-0.5-3-1.7-3-7.5v-15.1c0-0.2,0-0.4,0-0.6
				c0.3-1.6,1-3.1,2.1-4.3c3.2-3.3,11.2-3.9,14.5,1l0,0l0,0l0,0c0.1,0.1,0.4,0.5,0.7,0.4c0,0,0.4-0.1,0.4-0.8v-7.8
				C85.9-143.9,85.7-144.3,85.5-144.5"/>
			<path id="パス_4067" d="M35.5-159.4h-35c-0.2,0-0.4,0.1-0.5,0.3c-0.1,0.2,0,0.4,0.1,0.5c0,0,0.1,0.1,0.2,0.1
				c1.7,0.7,3,1.9,3.9,3.4c1,2.2,1.4,4.5,1.3,6.8c0,0,0,0,0,0l0,0v29.1c0.1,2.4-0.3,4.7-1.3,6.9c-0.9,1.6-2.3,2.8-3.9,3.4
				c-0.1,0-0.1,0.1-0.2,0.1C0-108.6,0-108.4,0-108.2c0.1,0.2,0.3,0.3,0.5,0.3h20.1c0.2,0,0.4-0.1,0.5-0.3c0.1-0.2,0-0.4-0.1-0.5
				c0,0-0.1-0.1-0.2-0.1c-1.7-0.7-3-1.9-3.9-3.4c-1-2.2-1.4-4.5-1.3-6.9v-12.6c0-0.3,0.3-0.6,0.6-0.6c4.7-0.1,7.1,0.7,8.5,2
				c1.6,1.6,2.8,3.5,3.7,5.6c0,0.1,0.1,0.1,0.1,0.2c0.1,0.1,0.3,0.2,0.5,0.1c0.2-0.1,0.3-0.3,0.3-0.5v-18.3c0-0.2-0.1-0.4-0.3-0.5
				c-0.2-0.1-0.4,0-0.5,0.1c0,0-0.1,0.1-0.1,0.2c-0.9,2.1-2.1,4-3.7,5.6c-1.4,1.3-3.8,2.1-8.5,2c-0.3,0-0.6-0.3-0.6-0.6v-12.6
				c0-4.3,1.5-7.2,3.7-8.1c2.6-1,5.6-0.4,8.3,0.6c7.5,3,7,10.8,7.7,12.1c0,0.1,0.1,0.1,0.1,0.2c0.1,0.1,0.3,0.2,0.5,0.1
				c0.2-0.1,0.3-0.3,0.3-0.5v-14.3C36.1-159.1,35.8-159.4,35.5-159.4L35.5-159.4"/>
			<path id="パス_4071" d="M140.5-115.4c-0.1,0-0.3,0-0.4,0.1c-1.4,1.2-3.6,2.9-5.5,3.1c-1.4,0.1-2.9-0.4-2.9-2.3v-13.2l0,0v-14.4
				h8v-2.8h-8v-14.6c0-0.2-0.2-0.5-0.4-0.5c-0.1,0-0.2,0-0.3,0.1c-0.1,0.1-0.2,0.2-0.4,0.3c-3,2.6-6.6,4.5-10.5,5.4
				c-0.2,0.1-0.4,0.1-0.6,0.1c-0.4,0.1-0.6,0.5-0.4,0.8c0.1,0.1,0.2,0.2,0.4,0.3c0.6,0.3,1.2,0.6,1.8,1c1.1,0.5,1.8,1.5,2,2.7v4.5
				h-6.6v2.8h6.5v14.4l0.1,13.5c0,0.8,0.1,1.6,0.3,2.4c0.6,2.2,3.3,4,6.1,4c5.7,0,8.7-4.6,10.8-6.7c0.1-0.1,0.2-0.2,0.2-0.4
				C140.9-115.2,140.8-115.4,140.5-115.4C140.6-115.4,140.6-115.4,140.5-115.4"/>
		</g>
		<g id="グループ_1715" transform="translate(0)">
			<path id="パス_4053" d="M402.5-144.4h-11.7c-0.2,0-0.5,0.2-0.5,0.4c0,0,0,0,0,0c0,0.2,0.2,0.3,0.5,0.4c0.2,0.1,0.7,0.2,1.3,0.3
				c0.8,0.1,1.5,0.5,2.1,1c0.2,0.2,0.4,0.5,0.5,0.8l0,0c0.1,0.4,0.2,0.8,0.1,1.2c0,1.4-0.3,2.7-0.8,4l-4.5,13.8
				c0,0-4.6-10.7-6.7-15.8c-0.4-1-0.7-1.5-0.8-2c-0.2-0.5-0.2-1-0.1-1.4c0.3-0.9,1.9-1.5,2.7-1.7c0.8-0.2,1.3-0.2,1.6-0.3
				c0.3-0.1,0.5-0.2,0.5-0.4c0-0.2-0.2-0.5-0.4-0.5c0,0,0,0,0,0H368c-0.2,0-0.5,0.2-0.5,0.4c0,0,0,0,0,0c0,0.2,0.2,0.3,0.5,0.4
				c0.5,0.1,1,0.2,1.4,0.5c0.4,0.2,0.8,0.5,1.1,0.9l0.2,0.2c0.7,1,14.2,32.8,14.2,32.8l-2,6.3c-0.8,2.6-1.9,3.3-3.7,3
				c-1.1-0.4-2-1.2-2.5-2.3c-0.1-0.2-0.1-0.4-0.3-0.5c-0.1-0.1-0.3-0.1-0.5,0c-0.1,0.1-5.5,4.7-5.5,4.7c-0.5,0.4-0.8,0.6-0.7,0.8
				c0,0.4,0.4,0.9,1.4,1.7c1.6,1.3,3.6,2,5.7,2c1.9-0.1,3.6-1,4.8-2.5c1.4-1.6,2-2.9,4.7-10.9l10.6-31.8c0.3-1.1,0.8-2.2,1.4-3.1
				c1.1-1,2.5-1.7,4-1.8c0.1,0,0.1,0,0.2,0c0.3-0.1,0.5-0.2,0.5-0.4C403-144.2,402.8-144.4,402.5-144.4
				C402.6-144.4,402.5-144.4,402.5-144.4"/>
			<path id="パス_4054" d="M268.5-144.4c-3.1,0-5.3,1.2-7.7,4.4c0,0-0.3,0.5-0.7,1v-19.2c0-0.2-0.2-0.4-0.4-0.4
				c-0.1,0-0.2,0-0.3,0.1c-0.1,0.1-0.2,0.2-0.4,0.3c-3,2.6-6.6,4.5-10.6,5.4c-0.2,0.1-0.4,0.1-0.6,0.1c-0.4,0.1-0.6,0.5-0.4,0.8
				c0.1,0.1,0.2,0.2,0.4,0.3c0.6,0.3,1.2,0.6,1.8,1c1.1,0.5,1.8,1.5,2,2.7v41.6c0,0.2,0.2,0.5,0.4,0.5c0.1,0,0.2,0,0.3-0.1
				c0.1-0.1,0.4-0.3,0.6-0.4c2-1.4,3.5-2.6,5.7-3c2.4,2.4,4.5,3.4,7.3,3.4c8.6,0,14.6-8,14.6-19.9
				C280.6-136.9,275.5-144.4,268.5-144.4 M265-108.1c-2.9,0-4.8-2.6-4.8-6.7v-21.1l0-0.1c1.2-3.6,2.6-4.9,4.8-4.9
				c4.2,0,6.6,5.4,6.6,16.2C271.7-113.3,269.4-108.1,265-108.1"/>
			<path id="パス_4055" d="M175.4-107c-1.1-0.5-3-1.7-3-7.5v-29.4c0-0.2-0.2-0.5-0.4-0.5c-0.1,0-0.2,0-0.3,0.1
				c-0.1,0.1-0.2,0.2-0.4,0.3c-3,2.6-6.6,4.5-10.6,5.4c-0.2,0.1-0.4,0.1-0.6,0.1c-0.4,0.1-0.6,0.5-0.4,0.8c0.1,0.1,0.2,0.2,0.4,0.3
				c0.6,0.3,1.2,0.6,1.8,1c1.1,0.5,1.8,1.5,2,2.7v19.3c0,5.8-1.9,7-3,7.5c-0.1,0-0.1,0.1-0.2,0.1c-0.1,0.1-0.2,0.3-0.2,0.5
				c0.1,0.2,0.3,0.3,0.5,0.3h14.1c0.2,0,0.4-0.1,0.5-0.3c0.1-0.2,0-0.4-0.2-0.5C175.5-107,175.4-107,175.4-107"/>
			<path id="パス_4056" d="M167.7-147c2.6,0,4.8-2.1,4.8-4.8c0-2.6-2.1-4.8-4.8-4.8c-2.6,0-4.8,2.1-4.8,4.8
				C162.9-149.1,165-147,167.7-147L167.7-147"/>
			<path id="パス_4057" d="M298.6-107c-1.1-0.5-3-1.7-3-7.5v-29.4c0-0.2-0.2-0.5-0.4-0.5c-0.1,0-0.2,0-0.3,0.1
				c-0.1,0.1-0.2,0.2-0.4,0.3c-3,2.6-6.6,4.5-10.6,5.4c-0.2,0.1-0.4,0.1-0.6,0.1c-0.4,0.1-0.6,0.5-0.4,0.8c0.1,0.1,0.2,0.2,0.4,0.3
				c0.6,0.3,1.2,0.6,1.8,1c1.1,0.5,1.8,1.5,2,2.7v19.3c0,5.8-1.9,7-3,7.5c-0.1,0-0.1,0.1-0.2,0.1c-0.1,0.1-0.2,0.3-0.2,0.5
				c0.1,0.2,0.3,0.3,0.5,0.3h14.1c0.2,0,0.4-0.1,0.5-0.3c0.1-0.2,0-0.4-0.2-0.5C298.7-107,298.7-107,298.6-107"/>
			<path id="パス_4058" d="M290.9-147c2.6,0,4.8-2.1,4.8-4.8c0-2.6-2.1-4.8-4.8-4.8c-2.6,0-4.8,2.1-4.8,4.8
				C286.2-149.1,288.3-147,290.9-147L290.9-147"/>
			<path id="パス_4059" d="M339.5-107c-1.1-0.5-3-1.7-3-7.5v-29.4c0-0.2-0.2-0.5-0.4-0.5c-0.1,0-0.2,0-0.3,0.1
				c-0.1,0.1-0.2,0.2-0.4,0.3c-3,2.6-6.6,4.5-10.6,5.4c-0.2,0.1-0.4,0.1-0.6,0.1c-0.4,0.1-0.6,0.5-0.4,0.8c0.1,0.1,0.2,0.2,0.4,0.3
				c0.6,0.3,1.2,0.6,1.8,1c1.1,0.5,1.8,1.5,2,2.7v19.3c0,5.8-1.9,7-3,7.5c-0.1,0-0.1,0.1-0.2,0.1c-0.1,0.1-0.2,0.3-0.2,0.5
				c0.1,0.2,0.3,0.3,0.5,0.3h14.1c0.2,0,0.4-0.1,0.5-0.3c0.1-0.2,0-0.4-0.2-0.5C339.6-107,339.6-107,339.5-107"/>
			<path id="パス_4060" d="M331.8-147c2.6,0,4.8-2.1,4.8-4.8c0-2.6-2.1-4.8-4.8-4.8c-2.6,0-4.8,2.1-4.8,4.8c0,0,0,0,0,0
				C327.1-149.1,329.2-147,331.8-147"/>
			<path id="パス_4061" d="M321.2-107c-1.6-0.7-2.9-1.8-3.8-3.3c-0.9-2.1-1.3-4.4-1.2-6.7v-41.2c0-0.2-0.2-0.5-0.4-0.5
				c-0.1,0-0.2,0-0.3,0.1c-0.1,0.1-0.2,0.2-0.4,0.3c-3,2.6-6.6,4.5-10.6,5.4c-0.2,0.1-0.4,0.1-0.6,0.1c-0.2,0-0.4,0.1-0.5,0.3
				c-0.1,0.2,0,0.4,0.1,0.5c0.1,0.1,0.2,0.2,0.4,0.3c0.6,0.3,1.2,0.6,1.8,1c1.1,0.5,1.8,1.5,2,2.7v31.1c0.1,2.3-0.3,4.6-1.2,6.7
				c-0.9,1.5-2.2,2.7-3.8,3.3c-0.1,0-0.1,0.1-0.2,0.1c-0.1,0.1-0.2,0.3-0.1,0.5c0.1,0.2,0.3,0.3,0.5,0.3H321c0.2,0,0.4-0.1,0.5-0.3
				c0.1-0.2,0-0.4-0.1-0.5C321.3-107,321.3-107,321.2-107"/>
			<path id="パス_4062" d="M86.1-131.2c-2.1-0.7-4.1-1.7-5.9-2.9c-1-0.7-1.6-1.9-1.5-3.1c0-1.4,0.6-2.8,1.8-3.6
				c1.3-0.9,3-1.4,4.6-1.2c2.3,0.1,4.4,1.1,6,2.7c1.5,1.5,2.6,3.4,2.9,5.6c0,0.3,0.3,0.4,0.5,0.4c0.2,0,0.3-0.1,0.4-0.3l3-6.9
				c0.2-0.4,0-0.9-0.4-1.1c-3.6-1.8-7.5-2.7-11.5-2.8c-4.3,0-7.3,1.2-9.6,3.5c-2.2,2.1-3.5,5-3.4,8c-0.1,2.8,1,5.5,3,7.5
				c1.9,2,4.9,3.6,9.2,5c3.4,1.1,5.6,1.9,6.3,2.5c1,0.8,1.6,2.1,1.6,3.4c0.1,1.6-0.6,3.2-1.7,4.4c-1.3,1-3,1.6-4.6,1.5
				c0,0-4.8,0.2-7.6-2.9c-1.5-1.5-2.5-3.5-2.9-5.6c-0.1-0.3-0.3-0.4-0.6-0.4c-0.2,0-0.3,0.1-0.3,0.3l-3,6.9c-0.2,0.4,0,0.9,0.4,1.1
				c4.2,2,8.7,3,13.3,3.1c4.8,0,7.4-1.3,9.7-3.6c2.3-2.3,3.6-5.5,3.5-8.8c0.2-2.7-0.8-5.4-2.7-7.3C94.6-127.7,91.2-129.5,86.1-131.2
				"/>
			<path id="パス_4063" d="M70.4-107c-1.1-0.5-3-1.7-3-7.5v-29.4c0-0.2-0.2-0.5-0.4-0.5c-0.1,0-0.2,0-0.3,0.1
				c-0.1,0.1-0.2,0.2-0.4,0.3c-3,2.6-6.6,4.5-10.6,5.4c-0.2,0.1-0.4,0.1-0.6,0.1c-0.4,0.1-0.6,0.5-0.4,0.8c0.1,0.1,0.2,0.2,0.4,0.3
				c0.6,0.3,1.2,0.6,1.8,1c1.1,0.5,1.8,1.5,2,2.7v16.1c0,0.6-0.2,1.1-0.6,1.4c-2.8,2.4-10.7,8.5-10.7,1v-28.7c0-0.2-0.2-0.5-0.4-0.5
				c-0.1,0-0.2,0-0.3,0.1c-0.1,0.1-0.2,0.2-0.4,0.3c-3,2.6-6.6,4.5-10.6,5.4c-0.2,0.1-0.4,0.1-0.6,0.1c-0.4,0.1-0.6,0.5-0.4,0.8
				c0.1,0.1,0.2,0.2,0.4,0.3c0.6,0.3,1.2,0.6,1.8,1c1.1,0.5,1.8,1.5,2,2.7v19.6c0,3.9,2.1,8.1,8,8.1c4.2,0,8.5-4.3,11.1-7.6
				c0.1-0.1,0.3-0.2,0.4-0.1c0.1,0.1,0.1,0.1,0.1,0.2c-0.2,5-2,6.1-3,6.6c-0.1,0-0.1,0.1-0.2,0.1c-0.1,0.1-0.2,0.3-0.2,0.5
				c0.1,0.2,0.3,0.3,0.5,0.3h14.1c0.2,0,0.4-0.1,0.5-0.3c0.1-0.2,0-0.4-0.2-0.5C70.5-107,70.4-107,70.4-107"/>
			<path id="パス_4064" d="M159-110.3c-0.1,0-0.2,0-0.3,0.1c-1.5,0.9-4.6,2-4.6-2.6v-23.1c0-2.9-2.5-8.5-12.1-8.5
				c-3.8,0-9.6,1-11.7,5.6c-0.4,0.9-0.7,1.9-0.9,2.8c-0.2,1-0.2,2-0.2,2.9c0,0.3,0.3,0.6,0.6,0.6l8.1,1.1c0.3,0,0.5-0.2,0.5-0.4
				c0-0.1,0-0.1,0-0.2c-0.5-1.7-0.7-3.4-0.7-5.2c0-3.2,1.6-5.6,4.2-5.6c2.6,0,4.2,1.5,4.2,4v9.7c0,0.4-0.3,0.8-0.7,0.8
				c-7.5,1.1-17,5-17.9,13.4c-0.5,4.9,3,8.8,8.4,8.8c4.8,0,7.2-2.4,9.8-5.7c0.1-0.1,0.3-0.2,0.4-0.1c0.1,0,0.1,0.1,0.1,0.2
				c0.3,2.8,1.4,5.6,4.8,5.6c3.5,0,6.9-2.3,8.2-3.3c0.1-0.1,0.2-0.2,0.2-0.3C159.4-110.1,159.2-110.3,159-110.3 M146.1-115.3
				c0,0.5-0.2,0.9-0.5,1.3c-2.1,2.1-4.1,3.5-7,3.2c-2.4-0.2-3.9-2.3-3.4-6c0.7-5.4,5.9-8.9,10.2-9.9c0.3-0.1,0.7,0.1,0.7,0.5
				c0,0,0,0.1,0,0.1L146.1-115.3z"/>
			<path id="パス_4065" d="M247.7-110.3c-0.1,0-0.2,0-0.3,0.1c-1.5,0.9-4.6,2-4.6-2.6v-23.1c0-2.9-2.5-8.5-12.1-8.5
				c-3.8,0-9.6,1-11.7,5.6c-0.4,0.9-0.7,1.9-0.9,2.8c-0.2,1-0.2,2-0.2,2.9c0,0.3,0.3,0.6,0.6,0.6l8.1,1.1c0.3,0,0.5-0.2,0.5-0.4
				c0-0.1,0-0.1,0-0.2c-0.5-1.7-0.7-3.4-0.7-5.2c0-3.2,1.6-5.6,4.2-5.6c2.6,0,4.2,1.5,4.2,4v9.7c0,0.4-0.3,0.8-0.7,0.8
				c-7.5,1.1-17,5-17.9,13.4c-0.5,4.9,3,8.8,8.4,8.8c4.8,0,7.2-2.4,9.8-5.7c0.1-0.1,0.3-0.2,0.4-0.1c0.1,0,0.1,0.1,0.1,0.2
				c0.3,2.8,1.4,5.6,4.8,5.6c3.5,0,6.9-2.3,8.2-3.3c0.1-0.1,0.2-0.2,0.2-0.3C248.1-110.1,247.9-110.3,247.7-110.3 M234.8-115.3
				c0,0.5-0.2,0.9-0.5,1.3c-2.1,2.1-4.1,3.5-7,3.2c-2.4-0.2-3.9-2.3-3.4-6c0.7-5.4,5.9-8.9,10.2-9.9c0.3-0.1,0.7,0.1,0.7,0.5
				c0,0,0,0.1,0,0.1L234.8-115.3z"/>
			<path id="パス_4066" d="M214.1-107c-1.1-0.5-3-1.7-3-7.5v-22.2c-0.3-4.3-3.8-7.6-8-7.7c-4.3,0-8.5,4-11.1,7.2
				c-0.1,0.1-0.3,0.2-0.4,0.1c-0.1-0.1-0.1-0.1-0.1-0.2v-6.6c0-0.2-0.2-0.5-0.4-0.5c-0.1,0-0.2,0-0.3,0.1c-0.1,0.1-0.2,0.2-0.4,0.3
				c-3,2.6-6.6,4.5-10.6,5.4c-0.2,0.1-0.4,0.1-0.6,0.1c-0.4,0.1-0.6,0.5-0.4,0.8c0.1,0.1,0.2,0.2,0.4,0.3c0.6,0.3,1.2,0.6,1.8,1
				c1.1,0.5,1.8,1.5,2,2.7v19.3c0,5.8-1.9,7-3,7.5c-0.1,0-0.1,0.1-0.2,0.1c-0.1,0.1-0.2,0.3-0.2,0.5c0.1,0.2,0.3,0.3,0.5,0.3h14.1
				c0.2,0,0.4-0.1,0.5-0.3c0.1-0.2,0-0.4-0.2-0.5c0,0-0.1-0.1-0.2-0.1c-1.1-0.5-3-1.7-3-7.5v-18.8c0-0.6,0.2-1.1,0.6-1.6
				c1.1-1.2,2.3-2.3,3.7-3.3c3.2-2.1,7-2.9,7,2.4v21.2c0,5.8-1.9,7-3,7.5c-0.1,0-0.1,0.1-0.2,0.1c-0.1,0.1-0.2,0.3-0.2,0.5
				c0.1,0.2,0.3,0.3,0.5,0.3H214c0.2,0,0.4-0.1,0.5-0.3c0.1-0.2,0-0.4-0.2-0.5C214.2-107,214.2-107,214.1-107"/>
			<path id="パス_4068" d="M26.8-135.8c-3.5-2.1-6.8-3.9-10.1-5.9c-5.5-3.2-7-4.9-7-8.7c0-4.3,2.8-7.5,7.5-7.5
				c3.1,0,6,1.4,8.4,4.3c2.3,2.7,3.4,4.9,4.8,9.9c0,0,0.6,0.9,0.9-0.4l1.5-8.8c0.1-0.4,0-0.8-0.2-1.2c-1.4-1.9-6.7-4.4-6.7-4.4
				c-2.8-1.2-5.8-1.7-8.8-1.7c-9.3,0-15.7,5.6-15.7,15.3c0,7.7,4.7,11.9,12.4,16c2.9,1.4,5.7,3.1,8.3,4.9c2.3,1.8,3.9,4,3.9,6.7
				c0,5.2-3.4,8.6-8.6,8.6c-3.4,0-6.8-1.7-9.5-4.8c-2.6-2.9-3.3-6.4-4.8-11.9c0,0-0.6-1-1,0.4c0,0-2,9.3-2.2,11.1
				c0,0.4,0.1,0.8,0.3,1.2c1.3,1.8,7.2,4.6,7.2,4.6c3.1,1.3,6.4,1.9,9.7,1.9c10.1,0,17-6.6,17-16.2
				C34.3-127.8,31.5-132.9,26.8-135.8"/>
			<path id="パス_4069" d="M365.5-113.7c-0.1,0-0.3,0-0.4,0.1c-1.4,1.2-3.6,2.9-5.5,3.1c-1.4,0.1-2.9-0.4-2.9-2.3V-126l0,0v-14.4
				h8v-2.8h-8v-14.6c0-0.2-0.2-0.5-0.4-0.5c-0.1,0-0.2,0-0.3,0.1c-0.1,0.1-0.2,0.2-0.4,0.3c-3,2.6-6.6,4.5-10.5,5.4
				c-0.2,0.1-0.4,0.1-0.6,0.1c-0.4,0.1-0.6,0.5-0.4,0.8c0.1,0.1,0.2,0.2,0.4,0.3c0.6,0.3,1.2,0.6,1.8,1c1.1,0.5,1.8,1.5,2,2.7v4.5
				h-6.6v2.8h6.5v14.4l0.1,13.5c0,0.8,0.1,1.6,0.3,2.4c0.6,2.2,3.3,4,6.1,4c5.7,0,8.7-4.6,10.8-6.7c0.1-0.1,0.2-0.2,0.2-0.4
				C365.9-113.5,365.7-113.6,365.5-113.7C365.5-113.7,365.5-113.7,365.5-113.7"/>
			<path id="パス_4070" d="M125.1-113.7c-0.1,0-0.3,0-0.4,0.1c-1.4,1.2-3.6,2.9-5.5,3.1c-1.4,0.1-2.9-0.4-2.9-2.3V-126l0,0v-14.4
				h8v-2.8h-8v-14.6c0-0.2-0.2-0.5-0.4-0.5c-0.1,0-0.2,0-0.3,0.1c-0.1,0.1-0.2,0.2-0.4,0.3c-3,2.6-6.6,4.5-10.5,5.4
				c-0.2,0.1-0.4,0.1-0.6,0.1c-0.4,0.1-0.6,0.5-0.4,0.8c0.1,0.1,0.2,0.2,0.4,0.3c0.6,0.3,1.2,0.6,1.8,1c1.1,0.5,1.8,1.5,2,2.7v4.5
				h-6.6v2.8h6.5v14.4l0.1,13.5c0,0.8,0.1,1.6,0.3,2.4c0.6,2.2,3.3,4,6.1,4c5.7,0,8.7-4.6,10.8-6.7c0.1-0.1,0.2-0.2,0.2-0.4
				C125.5-113.5,125.3-113.6,125.1-113.7C125.1-113.7,125.1-113.7,125.1-113.7"/>
		</g>
	</g>
</g>
</svg>
